<svg width="860" height="860" viewBox="0 0 860 860" fill="none" xmlns="http://www.w3.org/2000/svg"><g opacity=".38" fill="#180D09"><g opacity=".25"><path opacity=".03" d="M259.218 794.742c132.866 0 240.574-23.242 240.574-51.913 0-28.67-107.708-51.912-240.574-51.912S18.643 714.159 18.643 742.829c0 28.671 107.709 51.913 240.575 51.913z"/><path opacity=".07" d="M259.218 793.821c130.516 0 236.321-22.83 236.321-50.992s-105.805-50.991-236.321-50.991c-130.517 0-236.321 22.829-236.321 50.991s105.804 50.992 236.321 50.992z"/><path opacity=".1" d="M259.217 792.904c128.166 0 232.064-22.419 232.064-50.075 0-27.655-103.898-50.075-232.064-50.075-128.165 0-232.063 22.42-232.063 50.075 0 27.656 103.898 50.075 232.063 50.075z"/><path opacity=".14" d="M259.218 791.987c125.814 0 227.806-22.009 227.806-49.158s-101.992-49.158-227.806-49.158c-125.814 0-227.807 22.009-227.807 49.158s101.993 49.158 227.807 49.158z"/><path opacity=".17" d="M259.217 791.066c123.463 0 223.55-21.597 223.55-48.237s-100.087-48.237-223.55-48.237c-123.462 0-223.548 21.597-223.548 48.237s100.086 48.237 223.548 48.237z"/><path opacity=".21" d="M259.218 790.149c121.113 0 219.295-21.186 219.295-47.32s-98.182-47.32-219.295-47.32c-121.114 0-219.296 21.186-219.296 47.32s98.182 47.32 219.296 47.32z"/><path opacity=".24" d="M259.218 789.228c118.762 0 215.038-20.774 215.038-46.399S377.98 696.43 259.218 696.43c-118.762 0-215.038 20.774-215.038 46.399s96.276 46.399 215.038 46.399z"/><path opacity=".28" d="M259.218 788.311c116.411 0 210.781-20.363 210.781-45.482s-94.37-45.482-210.781-45.482S48.437 717.71 48.437 742.829s94.37 45.482 210.781 45.482z"/><path opacity=".31" d="M259.218 787.395c114.06 0 206.523-19.953 206.523-44.565 0-24.613-92.463-44.566-206.523-44.566S52.694 718.217 52.694 742.83c0 24.612 92.464 44.565 206.524 44.565z"/><path opacity=".34" d="M259.218 786.473c111.71 0 202.269-19.54 202.269-43.644s-90.559-43.644-202.269-43.644c-111.711 0-202.27 19.54-202.27 43.644s90.559 43.644 202.27 43.644z"/><path opacity=".38" d="M259.218 785.557c109.359 0 198.012-19.13 198.012-42.728 0-23.597-88.653-42.727-198.012-42.727-109.36 0-198.013 19.13-198.013 42.727 0 23.598 88.653 42.728 198.013 42.728z"/><path opacity=".41" d="M259.218 784.64c107.008 0 193.755-18.719 193.755-41.81 0-23.092-86.747-41.811-193.755-41.811S65.462 719.738 65.462 742.83c0 23.091 86.748 41.81 193.756 41.81z"/><path opacity=".45" d="M259.218 783.719c104.657 0 189.498-18.307 189.498-40.89 0-22.582-84.841-40.889-189.498-40.889S69.72 720.247 69.72 742.829c0 22.583 84.841 40.89 189.498 40.89z"/><path opacity=".48" d="M259.218 782.802c102.307 0 185.244-17.896 185.244-39.973 0-22.076-82.937-39.973-185.244-39.973-102.308 0-185.245 17.897-185.245 39.973 0 22.077 82.937 39.973 185.245 39.973z"/><path opacity=".52" d="M259.217 781.881c99.957 0 180.987-17.484 180.987-39.052 0-21.567-81.03-39.051-180.987-39.051-99.956 0-180.986 17.484-180.986 39.051 0 21.568 81.03 39.052 180.986 39.052z"/><path opacity=".55" d="M259.218 780.964c97.605 0 176.729-17.074 176.729-38.135 0-21.061-79.124-38.135-176.729-38.135-97.606 0-176.73 17.074-176.73 38.135 0 21.061 79.124 38.135 176.73 38.135z"/><path opacity=".59" d="M259.217 780.047c95.254 0 172.473-16.663 172.473-37.218 0-20.555-77.219-37.218-172.473-37.218-95.254 0-172.472 16.663-172.472 37.218 0 20.555 77.218 37.218 172.472 37.218z"/><path opacity=".62" d="M259.217 779.126c92.905 0 168.219-16.251 168.219-36.297 0-20.046-75.314-36.297-168.219-36.297-92.904 0-168.218 16.251-168.218 36.297 0 20.046 75.314 36.297 168.218 36.297z"/><path opacity=".66" d="M259.218 778.209c90.553 0 163.961-15.84 163.961-35.38 0-19.54-73.408-35.38-163.961-35.38-90.554 0-163.962 15.84-163.962 35.38 0 19.54 73.408 35.38 163.962 35.38z"/><path opacity=".69" d="M259.218 777.293c88.202 0 159.704-15.43 159.704-34.464 0-19.033-71.502-34.463-159.704-34.463-88.203 0-159.705 15.43-159.705 34.463 0 19.034 71.502 34.464 159.705 34.464z"/><path opacity=".72" d="M259.218 776.371c85.851 0 155.447-15.017 155.447-33.542 0-18.525-69.596-33.542-155.447-33.542s-155.447 15.017-155.447 33.542c0 18.525 69.596 33.542 155.447 33.542z"/><path opacity=".76" d="M259.218 775.455c83.501 0 151.193-14.607 151.193-32.626 0-18.018-67.692-32.625-151.193-32.625-83.502 0-151.194 14.607-151.194 32.625 0 18.019 67.692 32.626 151.194 32.626z"/><path opacity=".79" d="M259.217 774.533c81.151 0 146.936-14.194 146.936-31.704 0-17.51-65.785-31.704-146.936-31.704-81.15 0-146.936 14.194-146.936 31.704 0 17.51 65.786 31.704 146.936 31.704z"/><path opacity=".83" d="M259.217 773.617c78.8 0 142.679-13.784 142.679-30.788 0-17.003-63.879-30.787-142.679-30.787-78.799 0-142.678 13.784-142.678 30.787 0 17.004 63.879 30.788 142.678 30.788z"/><path opacity=".86" d="M259.218 772.7c76.448 0 138.421-13.373 138.421-29.871 0-16.497-61.973-29.871-138.421-29.871s-138.422 13.374-138.422 29.871c0 16.498 61.974 29.871 138.422 29.871z"/><path opacity=".9" d="M259.217 771.779c74.099 0 134.168-12.961 134.168-28.95 0-15.988-60.069-28.949-134.168-28.949-74.098 0-134.167 12.961-134.167 28.949 0 15.989 60.069 28.95 134.167 28.95z"/><path opacity=".93" d="M259.218 770.862c71.747 0 129.91-12.551 129.91-28.033 0-15.482-58.163-28.033-129.91-28.033-71.748 0-129.911 12.551-129.911 28.033 0 15.482 58.163 28.033 129.911 28.033z"/><path opacity=".97" d="M259.217 769.941c69.397 0 125.653-12.138 125.653-27.111 0-14.974-56.256-27.112-125.653-27.112-69.396 0-125.653 12.138-125.653 27.112 0 14.973 56.257 27.111 125.653 27.111z"/><path d="M259.218 769.024c67.045 0 121.396-11.728 121.396-26.195s-54.351-26.194-121.396-26.194-121.396 11.727-121.396 26.194c0 14.467 54.351 26.195 121.396 26.195z"/></g><g opacity=".19"><path opacity=".03" d="M593.335 659.209c132.866 0 240.575-17.601 240.575-39.314 0-21.712-107.709-39.314-240.575-39.314-132.866 0-240.575 17.602-240.575 39.314 0 21.713 107.709 39.314 240.575 39.314z"/><path opacity=".07" d="M593.335 658.512c130.516 0 236.321-17.29 236.321-38.617 0-21.327-105.805-38.616-236.321-38.616s-236.321 17.289-236.321 38.616c0 21.327 105.805 38.617 236.321 38.617z"/><path opacity=".1" d="M593.335 657.817c128.165 0 232.064-16.978 232.064-37.922 0-20.944-103.899-37.922-232.064-37.922s-232.064 16.978-232.064 37.922c0 20.944 103.899 37.922 232.064 37.922z"/><path opacity=".14" d="M593.335 657.123c125.814 0 227.806-16.667 227.806-37.228 0-20.56-101.992-37.228-227.806-37.228-125.814 0-227.806 16.668-227.806 37.228 0 20.561 101.992 37.228 227.806 37.228z"/><path opacity=".17" d="M593.335 656.425c123.463 0 223.549-16.355 223.549-36.53s-100.086-36.53-223.549-36.53c-123.463 0-223.549 16.355-223.549 36.53s100.086 36.53 223.549 36.53z"/><path opacity=".21" d="M593.335 655.732c121.113 0 219.295-16.045 219.295-35.837 0-19.791-98.182-35.836-219.295-35.836-121.114 0-219.295 16.045-219.295 35.836 0 19.792 98.181 35.837 219.295 35.837z"/><path opacity=".24" d="M593.335 655.033c118.762 0 215.038-15.732 215.038-35.138s-96.276-35.138-215.038-35.138c-118.762 0-215.038 15.732-215.038 35.138s96.276 35.138 215.038 35.138z"/><path opacity=".28" d="M593.335 654.339c116.411 0 210.781-15.421 210.781-34.444 0-19.023-94.37-34.444-210.781-34.444s-210.781 15.421-210.781 34.444c0 19.023 94.37 34.444 210.781 34.444z"/><path opacity=".31" d="M593.335 653.645c114.06 0 206.524-15.11 206.524-33.75 0-18.639-92.464-33.75-206.524-33.75s-206.523 15.111-206.523 33.75c0 18.64 92.463 33.75 206.523 33.75z"/><path opacity=".34" d="M593.335 652.948c111.711 0 202.27-14.798 202.27-33.053 0-18.254-90.559-33.052-202.27-33.052-111.71 0-202.27 14.798-202.27 33.052 0 18.255 90.56 33.053 202.27 33.053z"/><path opacity=".38" d="M593.335 652.253c109.359 0 198.013-14.487 198.013-32.358 0-17.871-88.654-32.358-198.013-32.358-109.359 0-198.012 14.487-198.012 32.358 0 17.871 88.653 32.358 198.012 32.358z"/><path opacity=".41" d="M593.335 651.559c107.008 0 193.756-14.176 193.756-31.664 0-17.487-86.748-31.664-193.756-31.664S399.58 602.408 399.58 619.895c0 17.488 86.747 31.664 193.755 31.664z"/><path opacity=".45" d="M593.335 650.861c104.657 0 189.498-13.864 189.498-30.966s-84.841-30.966-189.498-30.966-189.498 13.864-189.498 30.966 84.841 30.966 189.498 30.966z"/><path opacity=".48" d="M593.335 650.167c102.308 0 185.244-13.553 185.244-30.272 0-16.719-82.936-30.272-185.244-30.272-102.307 0-185.244 13.553-185.244 30.272 0 16.719 82.937 30.272 185.244 30.272z"/><path opacity=".52" d="M593.335 649.469c99.956 0 180.987-13.241 180.987-29.574 0-16.333-81.031-29.574-180.987-29.574-99.956 0-180.987 13.241-180.987 29.574 0 16.333 81.031 29.574 180.987 29.574z"/><path opacity=".55" d="M593.335 648.775c97.605 0 176.73-12.93 176.73-28.88s-79.125-28.88-176.73-28.88c-97.605 0-176.73 12.93-176.73 28.88s79.125 28.88 176.73 28.88z"/><path opacity=".59" d="M593.335 648.081c95.254 0 172.473-12.619 172.473-28.186 0-15.566-77.219-28.186-172.473-28.186-95.254 0-172.472 12.62-172.472 28.186 0 15.567 77.218 28.186 172.472 28.186z"/><path opacity=".62" d="M593.335 647.383c92.905 0 168.219-12.307 168.219-27.488s-75.314-27.488-168.219-27.488-168.219 12.307-168.219 27.488 75.314 27.488 168.219 27.488z"/><path opacity=".66" d="M593.335 646.689c90.553 0 163.961-11.996 163.961-26.794s-73.408-26.794-163.961-26.794c-90.553 0-163.961 11.996-163.961 26.794s73.408 26.794 163.961 26.794z"/><path opacity=".69" d="M593.335 645.995c88.202 0 159.704-11.685 159.704-26.1 0-14.414-71.502-26.099-159.704-26.099-88.202 0-159.704 11.685-159.704 26.099 0 14.415 71.502 26.1 159.704 26.1z"/><path opacity=".72" d="M593.335 645.297c85.851 0 155.447-11.373 155.447-25.402 0-14.029-69.596-25.402-155.447-25.402s-155.447 11.373-155.447 25.402c0 14.029 69.596 25.402 155.447 25.402z"/><path opacity=".76" d="M593.335 644.603c83.502 0 151.193-11.062 151.193-24.708 0-13.645-67.691-24.707-151.193-24.707-83.502 0-151.193 11.062-151.193 24.707 0 13.646 67.691 24.708 151.193 24.708z"/><path opacity=".79" d="M593.335 643.905c81.151 0 146.936-10.749 146.936-24.01 0-13.26-65.785-24.01-146.936-24.01-81.15 0-146.936 10.75-146.936 24.01 0 13.261 65.786 24.01 146.936 24.01z"/><path opacity=".83" d="M593.335 643.211c78.799 0 142.679-10.439 142.679-23.316 0-12.877-63.88-23.316-142.679-23.316s-142.679 10.439-142.679 23.316c0 12.877 63.88 23.316 142.679 23.316z"/><path opacity=".86" d="M593.335 642.517c76.448 0 138.421-10.128 138.421-22.622s-61.973-22.622-138.421-22.622-138.421 10.128-138.421 22.622 61.973 22.622 138.421 22.622z"/><path opacity=".9" d="M593.335 641.819c74.099 0 134.168-9.816 134.168-21.924 0-12.108-60.069-21.924-134.168-21.924s-134.168 9.816-134.168 21.924c0 12.108 60.069 21.924 134.168 21.924z"/><path opacity=".93" d="M593.335 641.125c71.747 0 129.91-9.505 129.91-21.23s-58.163-21.23-129.91-21.23c-71.748 0-129.91 9.505-129.91 21.23s58.162 21.23 129.91 21.23z"/><path opacity=".97" d="M593.335 640.427c69.396 0 125.653-9.193 125.653-20.532 0-11.34-56.257-20.532-125.653-20.532-69.396 0-125.653 9.192-125.653 20.532 0 11.339 56.257 20.532 125.653 20.532z"/><path d="M593.335 639.733c67.045 0 121.396-8.882 121.396-19.838 0-10.956-54.351-19.838-121.396-19.838s-121.396 8.882-121.396 19.838c0 10.956 54.351 19.838 121.396 19.838z"/></g></g><path d="M850 376.99H179.654L32.385 449.445h705.428L850 376.99z" fill="url(#paint0_linear_2248_2)"/><path d="M379.328 395.486H638.66l-42.531 26.542H320.494l58.834-26.542z" fill="url(#paint1_linear_2248_2)"/><path d="M596.129 422.028H320.494v14.613h275.635v-14.613z" fill="url(#paint2_linear_2248_2)"/><path d="M596.129 436.645l42.531-26.546v-14.613l-42.531 26.542v14.617z" fill="url(#paint3_linear_2248_2)"/><path d="M737.816 449.445H32.385v17.298h705.431v-17.298z" fill="url(#paint4_linear_2248_2)"/><path d="M850 376.99l-112.187 72.455v17.298L850 394.292V376.99z" fill="url(#paint5_linear_2248_2)"/><path d="M706.833 428.906c-25.232 13.247-48.41 4.817-51.19-3.549-3.492-10.501 1.622-22.674 1.622-22.674s41.205-22.587 58.192-20.748c7.668.825 12.875 1.902 16.388 3.449 4.3 1.881 6.095 4.505 6.779 8.309 1.261 6.903-6.556 21.945-31.788 35.213h-.003z" fill="url(#paint6_linear_2248_2)"/><path d="M733.704 390.205c-2.231 4.71-25.479 22.526-43.043 22.526s-33.396-2.975-33.396-10.045c0 0 8.543-19.2 58.192-20.748 7.707-.241 12.875 1.902 16.388 3.45 1.633 1.569 2.603 3.265 1.859 4.813v.004z" fill="url(#paint7_linear_2248_2)"/><path d="M726.344 383.312l-21.587 5.278 21.754 8.734-1.102.843s-17.174-7.091-25.611-9.659c-8.436-2.568-13.767-2.918-13.767-2.918l3.514-.733 12.485 2.907 22.125-5.022 2.189.57z" fill="url(#paint8_linear_2248_2)"/><path d="M719.913 181.283l.014-.014-.085-.11a5.9 5.9 0 00-.546-.705l-6.389-8.284-3.347 6.347-240.033 9.567a11.047 11.047 0 00-9.991 7.402l-53.531 153.488-7.764 3.701 6.588 8.363c.319.52.694.995 1.123 1.427l.155.198h.022c1.374 1.283 3.208 2.097 5.305 2.079l240.869-2.086a9.702 9.702 0 009.081-6.51l59.141-169.571c.659-1.885.323-3.783-.616-5.295l.004.003z" fill="url(#paint9_linear_2248_2)"/><path d="M713.806 177.922l-51.189 146.706-7.97 22.866a9.684 9.684 0 01-9.081 6.499l-240.851 2.09c-5.358.032-9.113-5.228-7.349-10.257l6.535-18.719 48.902-140.27c1.501-4.31 5.454-7.218 9.995-7.416l244.902-9.769c4.378-.163 7.548 4.116 6.11 8.263l-.004.007z" fill="url(#paint10_linear_2248_2)"/><path d="M713.806 177.922l-51.19 146.706-258.719 2.483 48.902-140.27a11.057 11.057 0 019.995-7.417l244.903-9.768c4.377-.163 7.547 4.115 6.109 8.263v.003z" fill="url(#paint11_linear_2248_2)"/><path d="M419.262 321.904l233.076-2.851a6.269 6.269 0 005.851-4.225l48.481-134.522c.953-2.759-1.173-5.614-4.091-5.486L463.69 185.806a7.68 7.68 0 00-6.899 5.079l-42.76 123.681c-1.293 3.602 1.406 7.384 5.231 7.338z" fill="url(#paint12_linear_2248_2)"/><path d="M531.024 344.478c4.16-3.115 5.516-8.333 3.029-11.654-2.487-3.32-7.875-3.487-12.035-.371-4.161 3.115-5.517 8.333-3.03 11.654 2.487 3.32 7.876 3.487 12.036.371z" fill="url(#paint13_linear_2248_2)"/><path d="M503.004 187.265l-39.176 1.803a4.388 4.388 0 00-3.952 2.887l-42.771 123.716a2.206 2.206 0 00.272 2.025 2.2 2.2 0 001.81.943l38.564-.472 45.253-130.898v-.004z" fill="url(#paint14_linear_2248_2)"/><path d="M484.977 255.867l193.223-6.205-23.096 64.057c-.425 1.243-1.537 2.058-2.808 2.058l-188.815 2.32 21.496-62.23zM703.581 179.229l-23.39 64.907-193.288 6.206L508.788 187l193.943-8.918c.425 0 .652.23.751.361.099.163.23.457.099.783v.003z" fill="#FEFEFE"/><path d="M712.255 165.15l.011-.01-.057-.075a4.157 4.157 0 00-.375-.485l-4.389-5.692-2.298 4.364-72.586 4.045a7.596 7.596 0 00-6.868 5.086l-20.139 55.21-5.334 2.543 4.527 5.745c.219.357.474.683.772.981l.106.138h.014a5.226 5.226 0 003.645 1.427l74.424-.634a6.67 6.67 0 006.241-4.473l22.724-64.536c.453-1.296.223-2.599-.425-3.637l.007.003z" fill="url(#paint15_linear_2248_2)"/><path d="M708.061 162.841l-17.259 48.824-5.479 15.715a6.653 6.653 0 01-6.241 4.466l-74.413.638c-3.68.021-6.262-3.591-5.051-7.048l4.491-12.864 16.955-46.129a7.595 7.595 0 016.867-5.097l75.93-4.182c3.007-.114 5.185 2.829 4.197 5.681l.003-.004z" fill="url(#paint16_linear_2248_2)"/><path d="M602.955 228.457c-.05 0-.1 0-.153-.075l4.626-13.455 17.507-47.627c.376-1.077 1.286-1.746 2.345-1.792l77.183-4.254-17.397 49.21-5.674 16.278a1.584 1.584 0 01-1.484 1.056l-76.953.659z" fill="#FEFEFE"/><path d="M605.628 211.736l30.75-26.971 15.457 19.735 22.859-15.786 15.13 17.759-8.549 23.351s-81.859 2.27-81.055.312c.804-1.959 5.408-18.403 5.408-18.403v.003z" fill="url(#paint17_linear_2248_2)"/><path d="M678.125 178.994c2.904-2.153 3.98-5.623 2.402-7.75-1.577-2.128-5.21-2.108-8.114.045-2.904 2.153-3.979 5.623-2.402 7.751 1.577 2.127 5.21 2.107 8.114-.046z" fill="#2EABA8"/><path d="M473.111 202.803l.011-.01-.057-.075a4.485 4.485 0 00-.372-.485l-4.388-5.692-2.299 4.364-80.615 1.027a7.597 7.597 0 00-6.868 5.086l-20.967 57.013-5.334 2.543 4.526 5.744c.22.358.475.684.772.982l.107.138h.014a5.216 5.216 0 003.644 1.427l83.286.581a6.67 6.67 0 006.241-4.473l22.724-64.536c.454-1.296.223-2.6-.425-3.637v.003z" fill="url(#paint18_linear_2248_2)"/><path d="M468.918 200.498l-17.259 48.824-5.48 15.715a6.65 6.65 0 01-6.24 4.466l-83.275-.577c-3.68.021-6.262-3.592-5.051-7.049l4.491-12.863 17.783-47.932a7.597 7.597 0 016.868-5.097l83.962-1.168c3.007-.114 5.186 2.83 4.197 5.681h.004z" fill="url(#paint19_linear_2248_2)"/><path d="M436.779 300.15l.011-.011-.057-.074a4.607 4.607 0 00-.371-.485l-4.389-5.692-2.298 4.364-80.616 1.027a7.594 7.594 0 00-6.867 5.086l-20.968 57.013-5.334 2.543 4.527 5.744c.219.358.474.684.772.981l.106.139h.014a5.218 5.218 0 003.645 1.427l83.286.581a6.672 6.672 0 006.24-4.473l22.725-64.536c.453-1.296.223-2.6-.426-3.637v.003z" fill="url(#paint20_linear_2248_2)"/><path d="M432.586 297.841l-17.26 48.824-5.479 15.715a6.653 6.653 0 01-6.24 4.466l-83.276-.577c-3.68.021-6.262-3.591-5.05-7.048l4.491-12.864 17.783-47.932a7.593 7.593 0 016.868-5.096l83.962-1.169c3.007-.113 5.185 2.83 4.197 5.681h.004z" fill="url(#paint21_linear_2248_2)"/><path d="M598.506 194.144l-83.538 4.356c-.828.043-1.462-.602-1.409-1.431.053-.828.775-1.544 1.604-1.586l83.538-4.357c.828-.042 1.462.602 1.409 1.431-.053.829-.775 1.544-1.604 1.587zM595.116 204.525l-83.537 4.356c-.829.043-1.463-.602-1.41-1.431.053-.828.776-1.544 1.605-1.586l83.537-4.357c.829-.042 1.463.602 1.41 1.431-.053.829-.776 1.544-1.605 1.587zM591.727 214.902l-83.538 4.357c-.828.042-1.462-.602-1.409-1.431.053-.829.775-1.544 1.604-1.587l83.538-4.356c.828-.043 1.462.602 1.409 1.431-.053.828-.776 1.544-1.604 1.586zM588.337 225.28l-83.537 4.356c-.829.043-1.463-.602-1.41-1.431.053-.828.776-1.544 1.604-1.586l83.538-4.357c.829-.042 1.463.602 1.41 1.431-.054.829-.776 1.544-1.605 1.587zM584.951 235.661l-83.537 4.357c-.829.042-1.463-.602-1.41-1.431.053-.829.776-1.544 1.605-1.587l83.537-4.356c.829-.043 1.463.602 1.41 1.43-.053.829-.776 1.545-1.605 1.587zM654.506 265.465l-83.704 1.934a1.361 1.361 0 01-1.41-1.473c.054-.829.776-1.523 1.608-1.544l83.704-1.934a1.36 1.36 0 011.41 1.473c-.053.829-.776 1.523-1.608 1.544zM651.109 275.765l-83.704 1.934a1.361 1.361 0 01-1.409-1.474c.053-.828.775-1.523 1.608-1.544l83.703-1.934a1.362 1.362 0 011.41 1.474c-.053.829-.776 1.523-1.608 1.544zM647.716 286.064l-83.704 1.934a1.36 1.36 0 01-1.409-1.473c.053-.829.775-1.523 1.608-1.544l83.703-1.934a1.36 1.36 0 011.41 1.473c-.053.829-.776 1.523-1.608 1.544zM644.319 296.364l-83.703 1.934a1.361 1.361 0 01-1.41-1.473c.053-.829.776-1.523 1.608-1.545l83.704-1.933a1.36 1.36 0 011.409 1.473c-.053.829-.775 1.523-1.608 1.544zM640.927 306.668l-83.704 1.933a1.36 1.36 0 01-1.41-1.473c.053-.829.776-1.523 1.608-1.544l83.704-1.934a1.362 1.362 0 011.41 1.473c-.054.829-.776 1.523-1.608 1.545zM546.03 266.436l-57.646 1.512a1.361 1.361 0 01-1.41-1.473c.053-.829.776-1.523 1.608-1.545l57.647-1.512a1.36 1.36 0 011.409 1.473c-.053.829-.775 1.523-1.608 1.545zM542.637 276.736l-57.646 1.512a1.361 1.361 0 01-1.41-1.474c.053-.828.776-1.523 1.608-1.544l57.647-1.512a1.36 1.36 0 011.409 1.473c-.053.829-.775 1.523-1.608 1.545zM539.241 287.035l-57.647 1.512a1.361 1.361 0 01-1.41-1.473c.054-.829.776-1.523 1.608-1.544l57.647-1.513a1.362 1.362 0 011.41 1.474c-.053.828-.776 1.523-1.608 1.544zM535.847 297.334l-57.646 1.513a1.362 1.362 0 01-1.41-1.474c.053-.828.776-1.523 1.608-1.544l57.647-1.512a1.36 1.36 0 011.409 1.473c-.053.829-.775 1.523-1.608 1.544zM532.451 307.634l-57.647 1.513a1.361 1.361 0 01-1.409-1.474c.053-.829.775-1.523 1.608-1.544l57.646-1.512a1.36 1.36 0 011.41 1.473c-.053.829-.776 1.523-1.608 1.544z" fill="#D8D8D8"/><path d="M544.306 250.02l174.119-9.337c4.162-.102 9.159 9.032 7.75 12.946l-18.11 49.939a9.465 9.465 0 01-8.762 6.238l-174.548 2.514c-4.785.061-12.977-7.894-11.416-12.417l20.504-42.237a11.357 11.357 0 0110.459-7.646h.004z" fill="url(#paint22_linear_2248_2)"/><path d="M539.896 244.544l176.159-4.314c4.162-.103 7.123 4.009 5.713 7.923l-18.537 51.14a8.325 8.325 0 01-7.729 5.487l-175.153 2.068c-4.785.06-8.182-4.647-6.62-9.17l15.712-45.484a11.355 11.355 0 0110.459-7.647l-.004-.003z" fill="url(#paint23_linear_2248_2)"/><g opacity=".67" fill="#fff"><path d="M698.417 252.903l-98.487 3.021a1.362 1.362 0 01-1.41-1.474c.053-.829.776-1.523 1.608-1.544l98.487-3.021a1.36 1.36 0 011.41 1.473c-.053.829-.776 1.523-1.608 1.545zM695.024 263.202l-98.491 3.021a1.36 1.36 0 01-1.409-1.473c.053-.829.775-1.523 1.608-1.544l98.491-3.022a1.362 1.362 0 011.409 1.474c-.053.829-.776 1.523-1.608 1.544zM691.627 273.502l-98.487 3.021a1.362 1.362 0 01-1.41-1.474c.053-.828.776-1.523 1.608-1.544l98.491-3.021a1.361 1.361 0 011.41 1.473c-.053.829-.776 1.523-1.608 1.545h-.004zM688.234 283.801l-98.491 3.021a1.36 1.36 0 01-1.409-1.473c.053-.829.775-1.523 1.608-1.544l98.491-3.021a1.36 1.36 0 011.409 1.473c-.053.829-.775 1.523-1.608 1.544zM684.838 294.101l-98.491 3.021a1.361 1.361 0 01-1.41-1.473c.053-.829.776-1.523 1.608-1.544l98.491-3.022a1.362 1.362 0 011.41 1.474c-.053.829-.776 1.523-1.608 1.544z"/></g><path d="M564.895 286.332c9.736-7.436 13.32-19.106 8.004-26.066-5.315-6.96-17.517-6.574-27.253.862s-13.32 19.106-8.005 26.066c5.316 6.96 17.517 6.574 27.254-.862z" fill="#FEFEFE"/><mask id="a" style="mask-type:luminance" maskUnits="userSpaceOnUse" x="535" y="255" width="41" height="38"><path d="M564.895 286.332c9.736-7.436 13.32-19.106 8.004-26.066-5.315-6.96-17.517-6.574-27.253.862s-13.32 19.106-8.005 26.066c5.316 6.96 17.517 6.574 27.254-.862z" fill="#fff"/></mask><g mask="url(#a)"><path d="M550.84 276.792l-.959 2.812s.382.917 3.655.886c3.272-.032 3.967-.748 3.967-.748l1.229-3.605-7.895.655h.003z" fill="url(#paint24_linear_2248_2)"/><path d="M565.851 264.746s-2.473 12.74-11.547 13.696h-.379c-8.422-.956-2.203-13.696-2.203-13.696h14.129z" fill="url(#paint25_linear_2248_2)"/><path d="M564.979 294.048h-33.303c1.547-1.828 4.409-9.68 7.558-12.099.79-.606 1.321-1.218 1.817-1.466 1.948-1.024 5.514-1.36 7.544-1.474.8-.042 1.36-.053 1.505-.053h.028s-.414.549.989 1.094c.279.114 1.055.178 1.919.185h.018c1.179.024 2.515-.036 2.975-.185 1.243-.378 1.594-.768 1.7-.97a.187.187 0 00.032-.071.944.944 0 01.018-.053s.219 0 .598.007c1.598.053 5.958.308 7.445 1.52.319.248.567.775.787 1.466.173.503-.819 8.507-1.637 12.099h.007z" fill="url(#paint26_linear_2248_2)"/><path d="M567.278 263.461s.018-.004.018-.007c.003-.146.959-4.452-5.147-4.715-6.102-.258-8.323 2.894-8.323 2.894s-2.752-.145-4.261 4.431c-1.509 4.58-.071 5.791-.071 5.791s.379-2.603 1.063-2.625c.683-.021-.67 2.558-.184 2.363.485-.195 2.139-2.621 2.5-4.969 0 0 3.808.924 6.935.432 3.124-.493 2.805 1.122 2.547 2.532-.259 1.41-.811 3.177.003 2.001.815-1.172 1.112-2.451 1.768-2.291.658.159-1.874 2.844-1.105 2.674.545-.121 4.207-5.129 4.253-8.518l.004.007z" fill="url(#paint27_linear_2248_2)"/><path d="M550.129 278.953l2.915 1.282-3.199 1.601-1.278-2.88s.867-.776 1.565 0l-.003-.003z" fill="#F3F5F5"/><path d="M556.833 278.953l-3.79 1.282 2.108 1.601 3.244-2.88s-.34-.776-1.566 0l.004-.003z" fill="#F3F5F5"/><path d="M546.165 294.048l5.302-12.595-.361-.255 1.466-.733h.007l.454-.23h.017l.326.258h.007l.928.705-.524.255-3.294 12.595h-4.328z" fill="#fff"/><path d="M535.033 294.048l3.383-6.907-2.04 6.907h-1.343zM560.647 294.048l1.984-6.333-.475 6.333h-1.509z" fill="#F1348D"/></g><path d="M575.789 250.356l-.337.981h9.347l-3.142 9.205h1.19l3.475-10.186h-10.533zM551.768 250.356l-.333.981h-9.347l-3.141 9.205h-1.19l3.474-10.186h10.537zM559.847 297.076l.333-.981h9.347l3.142-9.205h1.19l-3.478 10.186h-10.534zM535.826 297.076l.337-.981h-9.347l3.142-9.205h-1.191l-3.474 10.186h10.533zM402.856 212.919l-12.294 33.442 29.907-16.374-17.613-17.068z" fill="#FEFEFE"/><path d="M349.859 310.57c-6.495 5.827-7.041 15.815-1.218 22.31 5.823 6.496 15.814 7.034 22.31 1.208 6.495-5.826 7.041-15.814 1.218-22.31-5.823-6.496-15.814-7.034-22.31-1.208zm19.781 22.055c-5.688 5.1-14.433 4.629-19.533-1.059-5.1-5.684-4.622-14.429 1.066-19.533 5.688-5.1 14.433-4.629 19.533 1.059 5.101 5.685 4.622 14.429-1.066 19.533z" fill="#fff"/><path d="M367.57 336.29l5.945-5.332 1.44 1.605a.213.213 0 01-.016.3l-5.632 5.052a.213.213 0 01-.3-.017l-1.44-1.605.003-.003z" fill="#fff"/><path d="M373.512 334.136l-2.776 2.49 8.968 9.998 2.776-2.49-8.968-9.998z" fill="#fff"/><path d="M382.615 342.661l-4.395 3.942a.29.29 0 00-.022.411l15.851 17.673a.292.292 0 00.411.022l4.395-3.942a.29.29 0 00.022-.41l-15.852-17.674a.29.29 0 00-.41-.022z" fill="#fff"/><path opacity=".61" d="M369.63 332.628c5.693-5.097 6.178-13.841 1.084-19.53-5.094-5.689-13.838-6.17-19.531-1.073-5.692 5.097-6.177 13.84-1.083 19.53 5.094 5.689 13.838 6.169 19.53 1.073z" fill="#fff"/><path d="M604.683 147.55c18.083-18.655 22.01-44.182 8.77-57.017-13.24-12.835-38.633-8.117-56.717 10.537-18.083 18.654-22.01 44.182-8.77 57.017 13.24 12.835 38.633 8.117 56.717-10.537z" fill="url(#paint28_linear_2248_2)"/><path d="M599.752 144.256c18.084-18.654 22.01-44.181 8.77-57.016-13.24-12.835-38.633-8.118-56.717 10.537-18.083 18.654-22.01 44.181-8.77 57.016 13.24 12.835 38.633 8.118 56.717-10.537z" fill="url(#paint29_linear_2248_2)"/><path d="M555.916 117.077l7.593 22.285 40.965-31.855-3.747-5.1-30.803 21.973-4.162-15.612-9.846 8.309z" fill="#FEFEFE"/><path d="M473.09 364.034l19.781 12.956h94.397l-16.427-13.625-97.751.669z" fill="url(#paint30_linear_2248_2)"/><path d="M623.472 376.99H448.846v10.456h174.626V376.99z" fill="url(#paint31_linear_2248_2)"/><path d="M258.672 689.775s39.155 1.998 43.118 8.929c3.963 6.932-56.439 33.761-69.969 23.004-13.529-10.756-6.357-34.904-6.357-34.904l33.204 2.975.004-.004z" fill="url(#paint32_linear_2248_2)"/><path d="M210.595 555.094l6.712 122.834s-3.358 20.748 16.108 20.776c19.466.029 25.253-8.929 25.253-8.929l2.505-157.607-50.581 22.923.003.003z" fill="url(#paint33_linear_2248_2)"/><path d="M138.888 493.176s-18.751 56.896 12.665 67.139c31.416 10.243 85.369 5.465 122.246 0 36.877-5.465 58.05-17.755 58.05-17.755l5.465 145.898s9.563 9.563 21.17 8.196c11.606-1.368 21.169-6.829 21.169-6.829s18.096-214.227 2.961-226.655c-10.916-8.961-121.442 3.577-121.442 3.577L138.884 493.18l.004-.004z" fill="url(#paint34_linear_2248_2)"/><path d="M233.107 162.086s6.032 16.7 4.64 19.714c-1.392 3.014-3.478 4.406-3.478 4.406s6.032 6.96 5.334 13.686c-.694 6.726-.694 32.935-6.496 35.255-5.798 2.32-17.163-2.086-17.627 0-.464 2.086 0 13.452 0 13.452h-46.621l-3.015-41.517s22.732-57.52 25.746-57.52c3.014 0 41.517 12.524 41.517 12.524z" fill="url(#paint35_linear_2248_2)"/><path d="M242.153 140.283c.928 21.804-9.51 28.76-18.092 30.385-8.582 1.623-10.204-1.391-10.204-1.391s5.798 12.059 3.478 20.177-.694 10.902-2.32 11.366c-1.625.464-1.622-13.916-7.653-15.542-6.032-1.625-7.19 5.568-3.478 12.758 3.711 7.19.23 14.614-21.106 20.178-21.34 5.568-22.268 4.64-39.661-14.38-17.394-19.02 1.622-47.549 1.622-47.549s-6.262-24.817 33.165-22.961c39.431 1.855 64.249 6.959 64.249 6.959z" fill="url(#paint36_linear_2248_2)"/><path d="M152.24 244.321l74.619 2.358 14.246 11.975s35.705 1.527 41.531 8.001c5.826 6.475 36.902 136.608 36.902 136.608l53.089-5.178s9.063 2.589 11.008 11.653c1.94 9.063-3.238 18.775-3.238 18.775s-68.098 14.691-79.751 10.806c-11.652-3.885-21.247-35.411-21.247-35.411v88.404s-28.041 24.601-85.564 18.127c-57.519-6.475-63.349-27.191-63.349-27.191V373.54s1.941 48.498-5.826 46.558c-7.771-1.941-31.724 11.008-33.02-26.546-1.296-37.551 3.237-115.113 9.711-120.033 6.475-4.919 45.322-14.631 45.322-14.631l5.567-14.564v-.003z" fill="#F3931F"/><path d="M339.758 690.533s-6.293 28.165-2.369 31.306c3.924 3.138 16.873 9.159 34.922 5.168 18.049-3.992 61.214-9.184 62.783-17.575 1.569-8.39-37.278-10.229-43.161-12.644-5.886-2.416-12.272-6.963-12.272-6.963s-30.857 7.466-39.899.712l-.004-.004z" fill="url(#paint37_linear_2248_2)"/><path opacity=".2" d="M279.395 403.908l-21.265-66.416s4.757 122.423 5.71 136.976c.952 14.554-7.835 30.12-7.835 30.12l23.39-12.276v-88.404z" fill="url(#paint38_linear_2248_2)"/><path opacity=".2" d="M115.491 369.988l4.183-66.101 13.664 65.559-17.847.542z" fill="url(#paint39_linear_2248_2)"/><path d="M271.479 745.91h-10.947l-6.613-14.362-70.727-5.462-6.981 17.252v21.276s-4.172 8.008-6.821 8.911c-2.649.904-7.76-30.187-7.473-31.625.287-1.437 3.552-15.814 3.552-15.814l-76.007 8.051s-6.326 11.373-9.776 13.016c-3.45 1.647-15.01-.315-15.01-.315l15.874-24.775 84.919-14.376 103.977 14.95 2.037 23.273h-.004z" fill="url(#paint40_linear_2248_2)"/><path d="M67.612 722.711a4.801 4.801 0 013.8-3.262l78.629-12.751 23.131-2.688a4.783 4.783 0 011.109 0l23.132 2.688 78.628 12.751a4.795 4.795 0 013.8 3.262l5.876 18.162c1.003 3.103-1.31 6.283-4.569 6.283h-6.527a4.804 4.804 0 01-4.53-3.201l-5.033-14.217a4.808 4.808 0 00-3.956-3.167l-78.802-9.478a4.804 4.804 0 00-5.161 3.344l-5.387 17.341a4.87 4.87 0 00-.216 1.423v30.421a4.803 4.803 0 01-4.803 4.803h-4.19a4.802 4.802 0 01-4.802-4.803v-31.179c0-.495.078-.988.226-1.459l4.038-12.665c1.063-3.333-1.679-6.648-5.15-6.23l-70.51 8.479a4.807 4.807 0 00-3.957 3.166l-5.032 14.217a4.804 4.804 0 01-4.53 3.202h-6.528c-3.262 0-5.575-3.181-4.569-6.283l5.876-18.163.007.004z" fill="url(#paint41_linear_2248_2)"/><path d="M10.153 344.717l25.07 211.582c1.572 13.451 13.015 23.588 26.556 23.588h252.099c7.346 0 13.3-5.954 13.3-13.299v-6.503c0-6.482-5.253-11.734-11.734-11.734h-81.391c-8.561 0-15.722-6.291-16.859-14.678l-24.637-182.23c-2.444-18.169-17.996-31.798-36.339-31.798H32.428c-11.27 0-20.355 8.21-22.101 18.609a22.778 22.778 0 00-.174 6.463z" fill="url(#paint42_linear_2248_2)"/><path d="M10.153 344.717l25.07 211.581c1.572 13.452 13.015 23.589 26.556 23.589H308.48v-13.105h-93.122A16.968 16.968 0 01198.5 552.02l-24.633-182.142c-2.448-18.258-17.996-31.887-36.343-31.887H13.734c-1.133 0-2.27.085-3.407.262a22.785 22.785 0 00-.174 6.464z" fill="url(#paint43_linear_2248_2)"/><path d="M218.026 603.21h-82.535a.323.323 0 01-.322-.322v-23.001h83.179v23.001a.323.323 0 01-.322.322z" fill="url(#paint44_linear_2248_2)"/><path d="M165.466 699.533h21.484v-96.327h-21.484v96.327z" fill="url(#paint45_linear_2248_2)"/><path d="M197.413 707.687h-47.376v-24.931c0-.227.184-.411.411-.411h46.554c.226 0 .411.184.411.411v24.931z" fill="url(#paint46_linear_2248_2)"/><path d="M379.243 403.32s23.673-13.583 32.021-11.982c8.348 1.597 26.11 13.856 26.11 16.342 0 2.486-20.082-1.041-25.671.011-5.592 1.055-4.526 5.766-8.079 9.771-3.552 4.006-21.109 7.456-21.109 7.456s3.829-12.736-3.276-21.598h.004z" fill="url(#paint47_linear_2248_2)"/><defs><linearGradient id="paint0_linear_2248_2" x1="852.777" y1="334.733" x2="204.517" y2="463.853" gradientUnits="userSpaceOnUse"><stop stop-color="#fff"/><stop offset="1" stop-color="#CECECE"/></linearGradient><linearGradient id="paint1_linear_2248_2" x1="320.494" y1="408.757" x2="638.66" y2="408.757" gradientUnits="userSpaceOnUse"><stop stop-color="#36A9A7"/><stop offset="1" stop-color="#5F637A"/></linearGradient><linearGradient id="paint2_linear_2248_2" x1="320.494" y1="429.335" x2="596.129" y2="429.335" gradientUnits="userSpaceOnUse"><stop stop-color="#64C3DA"/><stop offset="1" stop-color="#159B86"/></linearGradient><linearGradient id="paint3_linear_2248_2" x1="596.129" y1="416.064" x2="638.66" y2="416.064" gradientUnits="userSpaceOnUse"><stop stop-color="#64C3DA"/><stop offset="1" stop-color="#159B86"/></linearGradient><linearGradient id="paint4_linear_2248_2" x1="686.509" y1="456.982" x2="-15.16" y2="459.575" gradientUnits="userSpaceOnUse"><stop stop-color="#E0EAEA"/><stop offset="1" stop-color="#7D878D"/></linearGradient><linearGradient id="paint5_linear_2248_2" x1="841.978" y1="421.692" x2="730.071" y2="422.102" gradientUnits="userSpaceOnUse"><stop stop-color="#E0EAEA"/><stop offset="1" stop-color="#7D878D"/></linearGradient><linearGradient id="paint6_linear_2248_2" x1="654.424" y1="408.82" x2="738.752" y2="408.82" gradientUnits="userSpaceOnUse"><stop stop-color="#E0EAEA"/><stop offset="1" stop-color="#7D878D"/></linearGradient><linearGradient id="paint7_linear_2248_2" x1="685.971" y1="383.879" x2="707.516" y2="411.183" gradientUnits="userSpaceOnUse"><stop stop-color="#E0EAEA"/><stop offset="1" stop-color="#7D878D"/></linearGradient><linearGradient id="paint8_linear_2248_2" x1="686.031" y1="390.456" x2="726.514" y2="390.456" gradientUnits="userSpaceOnUse"><stop stop-color="#36A9A7"/><stop offset="1" stop-color="#5F637A"/></linearGradient><linearGradient id="paint9_linear_2248_2" x1="598.201" y1="209.749" x2="534.442" y2="321.327" gradientUnits="userSpaceOnUse"><stop stop-color="#E0EAEA"/><stop offset="1" stop-color="#7D878D"/></linearGradient><linearGradient id="paint10_linear_2248_2" x1="555.54" y1="195.493" x2="555.54" y2="358.052" gradientUnits="userSpaceOnUse"><stop stop-color="#1BA1C8"/><stop offset="1" stop-color="#EEEFED"/></linearGradient><linearGradient id="paint11_linear_2248_2" x1="559.025" y1="191.477" x2="559.025" y2="328.772" gradientUnits="userSpaceOnUse"><stop stop-color="#404551"/><stop offset="1" stop-color="#1A1F28"/></linearGradient><linearGradient id="paint12_linear_2248_2" x1="565.362" y1="311.626" x2="554.687" y2="176.746" gradientUnits="userSpaceOnUse"><stop stop-color="#36A9A7"/><stop offset="1" stop-color="#5F637A"/></linearGradient><linearGradient id="paint13_linear_2248_2" x1="579.182" y1="344.752" x2="578.042" y2="329.716" gradientUnits="userSpaceOnUse"><stop stop-color="#E0EAEA"/><stop offset="1" stop-color="#7D878D"/></linearGradient><linearGradient id="paint14_linear_2248_2" x1="416.97" y1="252.952" x2="503.004" y2="252.952" gradientUnits="userSpaceOnUse"><stop stop-color="#36A9A7"/><stop offset="1" stop-color="#5F637A"/></linearGradient><linearGradient id="paint15_linear_2248_2" x1="600.22" y1="198.66" x2="712.914" y2="198.66" gradientUnits="userSpaceOnUse"><stop stop-color="#64C3DA"/><stop offset="1" stop-color="#159B86"/></linearGradient><linearGradient id="paint16_linear_2248_2" x1="599.313" y1="194.82" x2="708.302" y2="194.82" gradientUnits="userSpaceOnUse"><stop stop-color="#36A9A7"/><stop offset="1" stop-color="#5F637A"/></linearGradient><linearGradient id="paint17_linear_2248_2" x1="600.213" y1="207.851" x2="689.824" y2="207.851" gradientUnits="userSpaceOnUse"><stop stop-color="#36A9A7"/><stop offset="1" stop-color="#5F637A"/></linearGradient><linearGradient id="paint18_linear_2248_2" x1="352.218" y1="235.997" x2="473.77" y2="235.997" gradientUnits="userSpaceOnUse"><stop stop-color="#404551"/><stop offset="1" stop-color="#1A1F28"/></linearGradient><linearGradient id="paint19_linear_2248_2" x1="351.312" y1="232.158" x2="469.159" y2="232.158" gradientUnits="userSpaceOnUse"><stop stop-color="#FAAC0D"/><stop offset="1" stop-color="#F37C1B"/></linearGradient><linearGradient id="paint20_linear_2248_2" x1="315.887" y1="333.341" x2="437.438" y2="333.341" gradientUnits="userSpaceOnUse"><stop stop-color="#64C3DA"/><stop offset="1" stop-color="#159B86"/></linearGradient><linearGradient id="paint21_linear_2248_2" x1="314.98" y1="329.501" x2="432.827" y2="329.501" gradientUnits="userSpaceOnUse"><stop stop-color="#36A9A7"/><stop offset="1" stop-color="#5F637A"/></linearGradient><linearGradient id="paint22_linear_2248_2" x1="513.148" y1="276.502" x2="726.419" y2="276.502" gradientUnits="userSpaceOnUse"><stop stop-color="#404551"/><stop offset="1" stop-color="#1A1F28"/></linearGradient><linearGradient id="paint23_linear_2248_2" x1="513.343" y1="273.537" x2="722.123" y2="273.537" gradientUnits="userSpaceOnUse"><stop stop-color="#36A9A7"/><stop offset="1" stop-color="#5F637A"/></linearGradient><linearGradient id="paint24_linear_2248_2" x1="609.617" y1="278.869" x2="617.289" y2="278.869" gradientUnits="userSpaceOnUse"><stop stop-color="#F5D9D9"/><stop offset="1" stop-color="#ECB4B4"/></linearGradient><linearGradient id="paint25_linear_2248_2" x1="606.22" y1="272.129" x2="620.685" y2="272.129" gradientUnits="userSpaceOnUse"><stop stop-color="#F5D9D9"/><stop offset="1" stop-color="#ECB4B4"/></linearGradient><linearGradient id="paint26_linear_2248_2" x1="531.676" y1="286.5" x2="566.633" y2="286.5" gradientUnits="userSpaceOnUse"><stop stop-color="#36A9A7"/><stop offset="1" stop-color="#5F637A"/></linearGradient><linearGradient id="paint27_linear_2248_2" x1="604.683" y1="265.869" x2="621.843" y2="265.869" gradientUnits="userSpaceOnUse"><stop stop-color="#404551"/><stop offset="1" stop-color="#1A1F28"/></linearGradient><linearGradient id="paint28_linear_2248_2" x1="538.362" y1="136.482" x2="623.074" y2="112.223" gradientUnits="userSpaceOnUse"><stop stop-color="#64C3DA"/><stop offset="1" stop-color="#159B86"/></linearGradient><linearGradient id="paint29_linear_2248_2" x1="533.431" y1="133.191" x2="618.139" y2="108.934" gradientUnits="userSpaceOnUse"><stop stop-color="#36A9A7"/><stop offset="1" stop-color="#5F637A"/></linearGradient><linearGradient id="paint30_linear_2248_2" x1="473.09" y1="370.176" x2="587.268" y2="370.176" gradientUnits="userSpaceOnUse"><stop stop-color="#E0EAEA"/><stop offset="1" stop-color="#7D878D"/></linearGradient><linearGradient id="paint31_linear_2248_2" x1="448.846" y1="382.221" x2="623.476" y2="382.221" gradientUnits="userSpaceOnUse"><stop stop-color="#E0EAEA"/><stop offset="1" stop-color="#7D878D"/></linearGradient><linearGradient id="paint32_linear_2248_2" x1="232.229" y1="705.512" x2="288.774" y2="705.512" gradientUnits="userSpaceOnUse"><stop stop-color="#404551"/><stop offset="1" stop-color="#1A1F28"/></linearGradient><linearGradient id="paint33_linear_2248_2" x1="216.184" y1="615.44" x2="252.658" y2="615.44" gradientUnits="userSpaceOnUse"><stop stop-color="#404551"/><stop offset="1" stop-color="#1A1F28"/></linearGradient><linearGradient id="paint34_linear_2248_2" x1="133.338" y1="578.36" x2="388.653" y2="578.36" gradientUnits="userSpaceOnUse"><stop stop-color="#404551"/><stop offset="1" stop-color="#1A1F28"/></linearGradient><linearGradient id="paint35_linear_2248_2" x1="165.844" y1="199.081" x2="239.66" y2="199.081" gradientUnits="userSpaceOnUse"><stop stop-color="#F5D9D9"/><stop offset="1" stop-color="#ECB4B4"/></linearGradient><linearGradient id="paint36_linear_2248_2" x1="135.785" y1="177.207" x2="242.213" y2="177.207" gradientUnits="userSpaceOnUse"><stop stop-color="#404551"/><stop offset="1" stop-color="#1A1F28"/></linearGradient><linearGradient id="paint37_linear_2248_2" x1="347.044" y1="709.074" x2="418.465" y2="709.074" gradientUnits="userSpaceOnUse"><stop stop-color="#404551"/><stop offset="1" stop-color="#1A1F28"/></linearGradient><linearGradient id="paint38_linear_2248_2" x1="256.009" y1="421.04" x2="279.395" y2="421.04" gradientUnits="userSpaceOnUse"><stop stop-color="#404551"/><stop offset="1" stop-color="#1A1F28"/></linearGradient><linearGradient id="paint39_linear_2248_2" x1="115.491" y1="336.936" x2="133.338" y2="336.936" gradientUnits="userSpaceOnUse"><stop stop-color="#404551"/><stop offset="1" stop-color="#1A1F28"/></linearGradient><linearGradient id="paint40_linear_2248_2" x1="168.076" y1="782.146" x2="168.076" y2="703.507" gradientUnits="userSpaceOnUse"><stop stop-color="#343A45"/><stop offset="1" stop-color="#7D878D"/></linearGradient><linearGradient id="paint41_linear_2248_2" x1="173.729" y1="783.63" x2="173.729" y2="699.501" gradientUnits="userSpaceOnUse"><stop stop-color="#E0EAEA"/><stop offset="1" stop-color="#7D878D"/></linearGradient><linearGradient id="paint42_linear_2248_2" x1="58.577" y1="347.622" x2="177.408" y2="552.275" gradientUnits="userSpaceOnUse"><stop stop-color="#E0EAEA"/><stop offset="1" stop-color="#7D878D"/></linearGradient><linearGradient id="paint43_linear_2248_2" x1="174.706" y1="576.473" x2="110.348" y2="244.299" gradientUnits="userSpaceOnUse"><stop stop-color="#343A45"/><stop offset="1" stop-color="#7D878D"/></linearGradient><linearGradient id="paint44_linear_2248_2" x1="209.154" y1="591.547" x2="149.173" y2="591.547" gradientUnits="userSpaceOnUse"><stop stop-color="#E0EAEA"/><stop offset="1" stop-color="#7D878D"/></linearGradient><linearGradient id="paint45_linear_2248_2" x1="189.525" y1="651.368" x2="163.946" y2="651.368" gradientUnits="userSpaceOnUse"><stop stop-color="#E0EAEA"/><stop offset="1" stop-color="#7D878D"/></linearGradient><linearGradient id="paint46_linear_2248_2" x1="199.042" y1="695.014" x2="149.658" y2="695.014" gradientUnits="userSpaceOnUse"><stop stop-color="#E0EAEA"/><stop offset="1" stop-color="#7D878D"/></linearGradient><linearGradient id="paint47_linear_2248_2" x1="379.246" y1="408.062" x2="437.378" y2="408.062" gradientUnits="userSpaceOnUse"><stop stop-color="#F5D9D9"/><stop offset="1" stop-color="#ECB4B4"/></linearGradient></defs></svg>