<svg width="890" height="660" viewBox="0 0 890 660" fill="none" xmlns="http://www.w3.org/2000/svg"><g clip-path="url(#clip0_2251_2398)" fill-rule="evenodd" clip-rule="evenodd"><path d="M595.27 412.946c-3.19 0-6.28-1.655-8.03-4.614-28.92-49.663-82.42-80.529-139.69-80.529-57.27 0-110.79 30.856-139.69 80.529-2.57 4.424-8.27 5.929-12.68 3.351-4.41-2.578-5.91-8.296-3.34-12.72 32.2-55.351 91.89-89.747 155.71-89.747 63.82 0 123.48 34.396 155.71 89.747 2.57 4.424 1.1 10.142-3.34 12.72-1.47.832-3.06 1.263-4.66 1.263h.01zM357.83 233.592l26.21-26.291c3.62-3.632 3.62-9.53 0-13.151-3.62-3.621-9.5-3.631-13.11 0l-26.21 26.291-26.21-26.291c-3.62-3.631-9.5-3.631-13.11 0-3.62 3.631-3.62 9.529 0 13.151l26.21 26.291-26.21 26.291c-3.62 3.631-3.62 9.53 0 13.151a9.277 9.277 0 006.56 2.738c2.36 0 4.75-.923 6.56-2.738l26.21-26.292 26.21 26.292a9.277 9.277 0 006.56 2.738c2.36 0 4.75-.923 6.56-2.738 3.62-3.631 3.62-9.53 0-13.151l-26.21-26.291h-.02zM563.52 233.592l26.21-26.291c3.62-3.632 3.62-9.53 0-13.151-3.62-3.621-9.5-3.631-13.11 0l-26.21 26.291-26.21-26.291c-3.62-3.631-9.5-3.631-13.11 0-3.61 3.631-3.62 9.529 0 13.151l26.21 26.291-26.21 26.291c-3.62 3.631-3.62 9.53 0 13.151a9.277 9.277 0 006.56 2.738c2.36 0 4.75-.923 6.56-2.738l26.21-26.292 26.21 26.292a9.277 9.277 0 006.56 2.738c2.36 0 4.75-.923 6.56-2.738 3.62-3.631 3.62-9.53 0-13.151l-26.21-26.291h-.02zM133.84 540.28H9.29c-5.12 0-9.28-4.153-9.28-9.309s4.14-9.309 9.28-9.309h124.55c5.12 0 9.28 4.153 9.28 9.309s-4.17 9.309-9.28 9.309zM87.78 486.554H9.28c-5.12 0-9.28-4.153-9.28-9.309s4.14-9.308 9.28-9.308h78.5c5.12 0 9.28 4.152 9.28 9.308s-4.17 9.309-9.28 9.309zM880.69 326.73H756.14c-5.12 0-9.28-4.153-9.28-9.309s4.14-9.309 9.28-9.309h124.58c5.12 0 9.28 4.153 9.28 9.309-.03 5.136-4.2 9.309-9.31 9.309zM880.69 273.014h-78.5c-5.12 0-9.28-4.153-9.28-9.309s4.14-9.309 9.28-9.309h78.5c5.12 0 9.28 4.153 9.28 9.309s-4.17 9.309-9.28 9.309zM341.42 85.956H86.5c-5.12 0-9.28-4.153-9.28-9.31 0-5.155 4.14-9.308 9.28-9.308h254.92c5.12 0 9.28 4.153 9.28 9.309-.03 5.136-4.17 9.308-9.28 9.308zM657.2 115.737c-21.48 0-38.97-17.514-38.97-39.09 0-21.577 17.46-39.091 38.97-39.091 21.51 0 38.97 17.514 38.97 39.09-.03 21.547-17.5 39.091-38.97 39.091zm0-59.564c-11.28 0-20.44 9.189-20.44 20.504 0 11.315 9.16 20.503 20.44 20.503 11.28 0 20.44-9.188 20.44-20.503-.03-11.315-9.19-20.504-20.44-20.504zM773.78 115.737c-21.48 0-38.97-17.514-38.97-39.09 0-21.577 17.46-39.091 38.97-39.091 21.51 0 38.97 17.514 38.97 39.09 0 21.577-17.46 39.091-38.97 39.091zm0-59.564c-11.28 0-20.44 9.189-20.44 20.504 0 11.315 9.16 20.503 20.44 20.503 11.28 0 20.44-9.188 20.44-20.503s-9.16-20.504-20.44-20.504zM358.67 521.682c0-.21-.02-.411-.03-.611v-69.586a9.268 9.268 0 00-9.28-9.308c-5.14 0-9.28 4.182-9.28 9.308v60.888h-58.49v-60.888a9.268 9.268 0 00-9.28-9.308c-5.14 0-9.28 4.182-9.28 9.308v70.167c0 5.166 4.17 9.309 9.28 9.309h67.78v60.858c0 5.166 4.17 9.309 9.28 9.309 5.11 0 9.28-4.153 9.28-9.309v-69.595c.01-.181.03-.361.03-.542h-.01zM626.99 521.682c0-.21-.02-.411-.03-.611v-69.586c0-5.166-4.17-9.308-9.28-9.308-5.11 0-9.28 4.182-9.28 9.308v60.888h-58.49v-60.888a9.268 9.268 0 00-9.28-9.308c-5.14 0-9.28 4.182-9.28 9.308v70.167c0 5.166 4.17 9.309 9.28 9.309h67.78v60.858c0 5.166 4.17 9.309 9.28 9.309 5.11 0 9.28-4.153 9.28-9.309v-69.595c.01-.181.03-.361.03-.542h-.01zM444.98 603.285c-36.98 0-67.07-36.603-67.07-81.602 0-45 30.09-81.603 67.07-81.603 36.98 0 67.07 36.603 67.07 81.603 0 44.999-30.09 81.602-67.07 81.602zm0-144.607c-26.75 0-48.53 28.247-48.53 63.005 0 34.757 21.79 63.004 48.53 63.004 26.74 0 48.53-28.247 48.53-63.004 0-34.758-21.79-63.005-48.53-63.005z" fill="#4D5883"/><path d="M889.97 143.985V53.907C889.97 24.185 865.86 0 836.23 0H53.75C24.12 0 .01 24.185.01 53.907v552.186C.01 635.815 24.12 660 53.75 660h782.48c29.63 0 53.74-24.185 53.74-53.907V143.985zM53.74 18.587h782.48c19.43 0 35.21 15.86 35.21 35.32v80.769H18.53v-80.77c0-19.49 15.81-35.319 35.21-35.319zm782.48 622.816H53.74c-19.43 0-35.21-15.859-35.21-35.32V153.294h852.9v452.789c0 19.491-15.81 35.32-35.21 35.32z" fill="#F05226"/></g><defs><clipPath id="clip0_2251_2398"><path fill="#fff" d="M0 0h890v660H0z"/></clipPath></defs></svg>